<?xml version="1.0" encoding="utf-8"?>
<!DOCTYPE svg PUBLIC "-//W3C//DTD SVG 1.1//EN" "http://www.w3.org/Graphics/SVG/1.1/DTD/svg11.dtd">
<svg version="1.1" xmlns="http://www.w3.org/2000/svg" xmlns:xlink="http://www.w3.org/1999/xlink" x="0px" y="0px"
	 viewBox="0 0 152 36" style="enable-background:new 0 0 152 36;" xml:space="preserve">
<path fill="#414142" d="M35.9,7.4c-1.6,0-3.2,0.1-4.4,0.4v16.6c0.9,0.1,2.1,0.2,3.7,0.2c2.9,0,5.3-0.7,6.8-2.1
	c1.3-1.2,2.5-3.3,2.5-6.9c0-3.1-0.9-5.1-2.5-6.5C40.6,7.9,38.7,7.4,35.9,7.4z M36,21.9c-0.4,0-0.9,0-1.3-0.1V10
	c0.4-0.1,0.9-0.1,1.5-0.1c3,0,4.9,1.9,4.9,5.7C41.2,20,39.1,22,36,21.9z"/>
<path fill="#414142" d="M51.8,11.9c-3.6,0-5.6,3-5.6,6.5c0,3.8,2.2,6.2,5.9,6.2c1.5,0,2.9-0.3,4-0.7l-0.5-2.2c-0.8,0.3-1.8,0.5-3,0.5
	c-1.8,0-3.3-0.8-3.3-2.9h7.3c0.1-0.4,0.1-0.8,0.1-1.3C56.7,14,54.8,11.9,51.8,11.9z M49.3,17c0.1-1.2,0.7-2.8,2.3-2.8
	c1.6,0,2.1,1.6,2.1,2.8H49.3z"/>
<path fill="#414142" d="M65.8,12.1l-1.5,5.9c-0.3,1.1-0.5,2.1-0.7,3.1h-0.1c-0.2-1.1-0.4-2.1-0.7-3.1l-1.6-5.9h-3.5l4.1,12.2H65
	l4.2-12.2H65.8z"/>
<polygon fill="#f58220" points="74.2,16.9 79.8,16.9 79.8,14.3 74.2,14.3 74.2,10.2 80.1,10.2 80.1,7.5 71,7.5 71,24.4 80.4,24.4 
	80.4,21.6 74.2,21.6 "/>
<path fill="#f58220" d="M92.7,12.1h-3.4l-1.1,2.2c-0.3,0.6-0.6,1.3-0.9,2h0c-0.3-0.6-0.6-1.3-0.9-1.9l-1.2-2.2h-3.6l3.6,6l-3.7,6.2
	h3.5L86,22c0.3-0.6,0.6-1.3,0.9-1.9h0c0.3,0.7,0.6,1.3,0.9,1.9l1.2,2.4h3.6L89.1,18L92.7,12.1z"/>
<path fill="#f58220" d="M101,11.9c-1.6,0-2.8,0.7-3.6,1.9h0l-0.2-1.7h-2.8c0,1.1,0.1,2.4,0.1,4v13.1h3.2v-6.1h0
	c0.5,0.8,1.6,1.4,2.9,1.4c2.5,0,5-2,5-6.5C105.6,14.4,103.6,11.9,101,11.9z M99.8,22.1c-1.1,0-2.2-0.9-2.2-2.6v-2.3
	c0-1.5,1-2.7,2.2-2.7c1.6,0,2.4,1.6,2.4,3.8C102.3,20.4,101.5,22.1,99.8,22.1z"/>
<path fill="#f58220" d="M110.8,14.3L110.8,14.3l-0.2-2.1h-2.8c0,1.1,0.1,2.3,0.1,3.8v8.4h3.3V18c0-2.1,1.1-3.1,2.6-3.1
	c0.3,0,0.6,0,0.8,0.1v-3.1c-0.2,0-0.4-0.1-0.7-0.1C112.7,11.9,111.4,12.7,110.8,14.3z"/>
<path fill="#f58220" d="M121.3,11.9c-3.6,0-5.6,3-5.6,6.5c0,3.8,2.2,6.2,5.9,6.2c1.5,0,2.9-0.3,4-0.7l-0.5-2.2
	c-0.8,0.3-1.8,0.5-3,0.5c-1.8,0-3.2-0.8-3.3-2.9h7.3c0.1-0.4,0.1-0.8,0.1-1.3C126.2,14,124.3,11.9,121.3,11.9z M118.8,17
	c0.1-1.2,0.7-2.8,2.3-2.8c1.6,0,2.1,1.6,2.1,2.8H118.8z"/>
<path fill="#f58220" d="M133,17c-1.4-0.6-1.9-0.9-1.9-1.6c0-0.7,0.5-1.2,1.5-1.2c0.9,0,1.8,0.3,2.3,0.6l0.6-2.3
	c-0.7-0.4-1.8-0.7-3-0.7c-2.7,0-4.5,1.7-4.5,3.9c0,1.3,0.8,2.6,3.1,3.6c1.3,0.6,1.8,1,1.8,1.7c0,0.7-0.5,1.2-1.7,1.2
	c-1,0-2.2-0.4-2.9-0.8l-0.6,2.3c0.8,0.5,2.1,0.8,3.4,0.8c3.1,0,4.8-1.5,4.8-3.9C136,19,135,17.8,133,17z"/>
<path fill="#f58220" d="M142.7,17c-1.4-0.6-1.9-0.9-1.9-1.6c0-0.7,0.5-1.2,1.5-1.2c0.9,0,1.8,0.3,2.3,0.6l0.6-2.3
	c-0.7-0.4-1.8-0.7-3-0.7c-2.7,0-4.5,1.7-4.5,3.9c0,1.3,0.8,2.6,3.1,3.6c1.3,0.6,1.8,1,1.8,1.7c0,0.7-0.5,1.2-1.7,1.2
	c-1,0-2.2-0.4-2.9-0.8l-0.6,2.3c0.8,0.5,2.1,0.8,3.4,0.8c3.1,0,4.8-1.5,4.8-3.9C145.7,19,144.8,17.8,142.7,17z"/>
<path fill="#414142" d="M1.7,23.2c-0.6,0.8-1.1,1.4-1.4,2.1C0.2,25.4,0,25.9,0,26.2v0.4C0,27.4,0.6,28,1.4,28h21.2
	c0.8,0,1.4-0.6,1.4-1.4V10.3C12.4,12.3,5.3,18.6,1.7,23.2z"/>
<path fill="#f58220" d="M22.6,4H1.4C0.6,4,0,4.6,0,5.4v12.7c4.2-4.4,11.7-9.2,23.1-10.6c0.3,0,0.9-0.2,0.9-1V5.4
	C24,4.6,23.4,4,22.6,4z"/>
<path fill="#f58220" d="M148.9,11.4L148.9,11.4c0.4-0.1,0.5-0.3,0.5-0.6c0-0.2-0.1-0.4-0.2-0.5c-0.1-0.1-0.4-0.2-0.6-0.2h-0.7v2.2
	h0.4v-0.9h0.2c0.1,0,0.2,0.1,0.3,0.3l0.2,0.6h0.5l-0.3-0.6C149.1,11.6,149,11.5,148.9,11.4z M148.5,11.2h-0.3v-0.6h0.3
	c0.3,0,0.4,0.1,0.4,0.3c0,0.1,0,0.2-0.1,0.2C148.8,11.2,148.7,11.2,148.5,11.2z"/>
<path fill="#f58220" d="M149.9,10.1c-0.3-0.3-0.8-0.5-1.3-0.5c-0.5,0-1,0.2-1.3,0.5c-0.4,0.3-0.5,0.8-0.5,1.3c0,0.5,0.2,0.9,0.5,1.3
	c0.3,0.3,0.8,0.5,1.3,0.5c0.5,0,0.9-0.2,1.3-0.5c0.4-0.3,0.5-0.8,0.5-1.3C150.4,10.8,150.2,10.4,149.9,10.1z M149.6,12.4
	c-0.3,0.3-0.7,0.4-1.1,0.4c-0.4,0-0.8-0.1-1.1-0.4c-0.3-0.3-0.4-0.7-0.4-1.1c0-0.4,0.1-0.8,0.4-1.1c0.3-0.3,0.7-0.4,1.1-0.4
	c0.4,0,0.8,0.1,1.1,0.4c0.3,0.3,0.4,0.7,0.4,1.1C150.1,11.8,149.9,12.1,149.6,12.4z"/>
</svg>
